<?xml version="1.0" encoding="UTF-8" standalone="no"?>
<!--part of the matt icon theme by sixsixfive released under CC0 (https://creativecommons.org/publicdomain/zero/1.0/) on openclipart-->
<svg xmlns="http://www.w3.org/2000/svg" xmlns:xlink="http://www.w3.org/1999/xlink" viewBox="0 0 128 128">
 <defs id="0">
  <linearGradient id="8">
   <stop id="M" stop-color="#0057ae"/>
   <stop id="N" offset="1" stop-color="#00438a"/>
  </linearGradient>
  <linearGradient id="9">
   <stop id="O"/>
   <stop offset="1" id="P" stop-opacity="0.536"/>
  </linearGradient>
  <linearGradient id="A">
   <stop id="Q"/>
   <stop offset="1" id="R" stop-color="#ddd" stop-opacity="0"/>
  </linearGradient>
  <filter id="B" x="-0.147" width="1.294" y="-0.145" height="1.29">
   <feGaussianBlur stdDeviation="1.81881" id="S"/>
  </filter>
  <filter id="C">
   <feGaussianBlur stdDeviation="2.58594" id="T"/>
  </filter>
  <radialGradient xlink:href="#9" id="D" gradientUnits="userSpaceOnUse" gradientTransform="matrix(1,0,0,0.97467889,0,0.43910718)" cx="89.51" cy="22.254" r="18.279"/>
  <linearGradient xlink:href="#A" y2="25.1" x2="86.82" y1="14.793" x1="98.33" gradientTransform="matrix(0.96714879,0,0,0.96714879,1.5886796,3.2231964)" gradientUnits="userSpaceOnUse" id="E"/>
  <radialGradient xlink:href="#8" r="44.42" cy="100.32" cx="81.79" gradientTransform="matrix(2.0026052,-1.5970314,1.7773333,2.2286954,-278.07918,27.013826)" gradientUnits="userSpaceOnUse" id="F"/>
  <linearGradient id="G">
   <stop id="U" stop-color="#eee"/>
   <stop id="V" offset="1" stop-color="#dcdcdc"/>
  </linearGradient>
  <linearGradient id="H">
   <stop id="W" stop-color="#005bba"/>
   <stop id="X" offset="1" stop-color="#00438a"/>
  </linearGradient>
  <radialGradient xlink:href="#H" id="I" gradientUnits="userSpaceOnUse" gradientTransform="matrix(-1.000243,0.98586576,-1.0002429,-0.9858657,136.67077,-51.812516)" cx="65.35" cy="5.944" r="58.696"/>
  <radialGradient xlink:href="#G" id="J" gradientUnits="userSpaceOnUse" gradientTransform="matrix(-1.404511,1.1888571,-0.99999995,-1.1813958,199.73811,11.750541)" cx="60.05" cy="51.39" r="15.03"/>
 </defs>
 <path d="m 20.09375,4.1185004 0,117.9999996 88.84375,0 0,-86.15625 -0.59375,-0.625 c 0.21045,0.144391 0.41688,0.302162 0.625,0.4375 L 78.09375,4.1497504 c 0.05654,0.079597 0.09993,0.1703021 0.15625,0.25 l -0.25,-0.28125 -57.90625,0 z" id="1" transform="matrix(0.96714879,0,0,0.97126149,1.5886796,2.6954315)" opacity="0.809" filter="url(#C)"/>
 <path d="m 21.046229,5.8526322 0,114.1235578 85.925121,0 0,-83.325913 -29.921161,-30.7976448 -56.00396,0 z" id="2" fill="url(#F)"/>
 <g id="3" transform="matrix(0.7511818,0,0,0.7511818,15.933155,5.380249)" fill="url(#J)">
  <path d="M 70.921635,61.154972 L 70.921635,91.585778 C 70.921609,93.252671 71.389149,94.472341 72.324258,95.244793 C 73.25931,95.976601 74.743243,96.545781 76.776059,96.952333 L 78.056714,97.196268 C 78.707171,97.440206 79.032417,97.826435 79.032451,98.354956 L 79.032451,101.22118 L 78.788517,101.46512 C 72.03964,101.3025 67.038992,101.22118 63.786556,101.22118 L 49.211481,101.46512 L 48.967547,101.22118 L 48.967547,98.354956 C 48.967542,97.785779 49.252132,97.39955 49.821317,97.196268 L 51.345906,96.952333 C 53.378683,96.627092 54.862616,96.07824 55.797707,95.305777 C 56.732777,94.533325 57.200317,93.293326 57.20033,91.585778 L 57.20033,61.154972 C 57.200317,58.187147 56.976711,56.174691 56.52951,55.117598 C 56.082286,54.060596 55.391139,53.491417 54.456069,53.410057 L 49.333448,52.861205 L 49.089514,49.141207 C 59.61933,47.799621 66.734074,46.559623 70.433767,45.421208 C 71.00292,45.421264 71.28751,45.543231 71.287537,45.78711 C 71.043576,51.844862 70.921609,56.967477 70.921635,61.154972 M 56.468527,29.931379 C 56.468515,27.858011 57.200317,26.089489 58.663936,24.625808 C 60.127526,23.16228 61.87572,22.430478 63.908524,22.430399 C 65.981944,22.430478 67.750466,23.16228 69.214095,24.625808 C 70.677675,26.089489 71.409477,27.858011 71.409504,29.931379 C 71.409477,31.964234 70.677675,33.712429 69.214095,35.175967 C 67.750466,36.639638 65.981944,37.37144 63.908524,37.371376 C 61.87572,37.37144 60.127526,36.639638 58.663936,35.175967 C 57.200317,33.712429 56.468515,31.964234 56.468527,29.931379" id="K"/>
 </g>
 <path id="4" d="m 81.698039,28.309502 0.135161,-8.351 C 81.901124,13.359407 80.956142,8.4107397 77.785779,3.9471419 L 80.362343,3.9159389 107.86271,29.53084 c -4.06802,-2.645393 -9.621189,-0.791242 -16.861906,-1.025606 l -9.302765,-0.195732 z" transform="matrix(1.016085,0,0,1.112241,-3.7922382,2.9647584)" opacity="0.505" fill="url(#D)" filter="url(#B)"/>
 <path d="m 82.748319,29.121681 0.130721,-8.07666 c 0.06569,-6.382306 -2.691577,-10.83607 -5.75779,-15.1530328 l 29.86674,30.5881668 c -3.93438,-2.558489 -8.23966,-6.942507 -15.242513,-7.169171 l -8.997158,-0.189303 z" id="5" fill="#eee"/>
 <path id="6" d="m 82.748319,29.121681 0.130721,-8.07666 c 0.06569,-6.382306 -2.691577,-10.83607 -5.75779,-15.1530328 l 29.86674,30.5881668 c -3.93438,-2.558489 -8.23966,-6.942507 -15.242513,-7.169171 l -8.997158,-0.189303 z" fill="url(#E)"/>
 <text x="63.767" y="109.94" id="7" fill="#ddd" font-family="Jigsaw Trouserdrop" text-anchor="middle" text-align="center" line-height="125%" font-size="40"><tspan id="L" x="63.767" y="109.94" font-family="Liberation Sans" text-align="center" line-height="125%" font-weight="bold" font-size="18">README</tspan>
 </text>
</svg>
